<svg width="1080" height="1080" viewBox="0 0 1080 1080" fill="none" xmlns="http://www.w3.org/2000/svg">
<g id="Instagram post - 1">
<g id="text line">
<text id="Place" fill="black" xml:space="preserve" style="white-space: pre" font-family="Inter" font-size="36" letter-spacing="0em"><tspan x="355" y="967.091">&#xe42;&#xe23;&#xe07;&#xe41;&#xe23;&#xe21;&#xe23;&#xe49;&#xe2d;&#xe22;&#xe17;&#xe2d;&#xe07; &#xe08;.&#xe1e;&#xe31;&#xe17;&#xe25;&#xe38;&#xe07;</tspan></text>
<text id="Date" fill="black" xml:space="preserve" style="white-space: pre" font-family="Inter" font-size="32" letter-spacing="0em"><tspan x="315" y="895.136">&#xe27;&#xe31;&#xe19;&#xe08;&#xe31;&#xe19;&#xe17;&#xe23;&#xe4c;&#xe17;&#xe35;&#xe48; 26 &#xe21;&#xe34;&#xe16;&#xe38;&#xe19;&#xe32;&#xe22;&#xe19; &#xe1e;.&#xe28;. 2568</tspan></text>
<text id="Bride" fill="black" xml:space="preserve" style="white-space: pre" font-family="Inter" font-size="48" letter-spacing="0em"><tspan x="520" y="840.455">&#xe42;&#xe2a;&#xe20;&#xe34;&#xe15;&#xe32; &#xe42;&#xe2a;&#xe20;&#xe13;</tspan></text>
<text id="and" fill="black" xml:space="preserve" style="white-space: pre" font-family="Inter" font-size="32" letter-spacing="0em"><tspan x="610.521" y="776.394">&#xe41;&#xe25;&#xe30;</tspan></text>
<text id="Groom" fill="black" xml:space="preserve" style="white-space: pre" font-family="Inter" font-size="48" letter-spacing="0em"><tspan x="355" y="738.455">&#xe1e;&#xe07;&#xe28;&#xe01;&#xe23; &#xe16;&#xe32;&#xe27;&#xe23;&#xe19;&#xe31;&#xe19;&#xe17;&#xe4c;</tspan></text>
</g>
<rect id="Rectangle 1" opacity="0.5" y="695" width="1080" height="378" fill="url(#paint0_linear_650_138)"/>
<g id="Overlay">
<g id="Group">
<path id="Vector" d="M569.245 262.712C570.472 263.281 571.627 263.98 572.717 264.797C573.8 265.621 574.657 266.717 575.279 268.092C575.998 269.597 575.764 270.953 574.585 272.168C573.848 272.802 573.034 273.086 572.142 273.021C571.262 272.944 570.526 272.494 569.939 271.67C568.323 269.395 566.395 267.784 564.144 266.836C561.893 265.888 559.522 265.165 557.032 264.655C551.524 263.458 545.998 262.771 540.461 262.593C534.917 262.404 529.385 262.416 523.866 262.617C514.67 263.156 502.781 265.1 488.209 268.447C473.631 271.783 457.629 276.316 440.196 282.051C422.775 287.774 405.186 294.529 387.417 302.314C369.661 310.088 352.97 318.691 337.345 328.123C321.732 337.544 308.525 347.598 297.713 358.293C286.889 368.993 279.669 380.108 276.041 391.638C273.138 401.628 274.575 410.93 280.352 419.556C284.441 425.452 289.356 430.482 295.103 434.653C303.676 440.91 312.77 446.325 322.378 450.887C330.52 455.029 338.716 459.153 346.971 463.259C355.018 467.181 363.076 471.186 371.158 475.274C380.191 479.92 389.13 484.659 397.978 489.494C398.822 489.968 399.66 490.407 400.492 490.798C405.246 493.28 409.646 496.26 413.687 499.732C417.949 503.761 419.536 507.352 418.452 510.516C417.381 513.674 414.429 516.405 409.592 518.716C404.767 521.039 398.948 522.923 392.135 524.38C385.316 525.832 378.318 526.821 371.134 527.343C363.95 527.876 357.46 527.947 351.665 527.556C345.87 527.177 341.619 526.312 338.925 524.973C333.465 522.129 332.005 517.969 334.543 512.507C337.381 506.819 341.452 502.15 346.756 498.5C354.383 492.943 362.932 490.347 372.403 490.727C374.253 490.869 376.079 491.236 377.887 491.817C378.042 491.835 378.204 491.882 378.366 491.959C378.844 492.089 379.216 492.362 379.491 492.788C379.778 493.203 379.838 493.707 379.683 494.305C379.216 495.318 378.443 495.792 377.36 495.727C376.306 495.632 375.288 495.455 374.319 495.182C367.452 493.825 361.064 494.874 355.161 498.334C349.27 501.794 344.828 506.688 341.847 513.028C340.614 516.044 341.116 518.254 343.355 519.664C345.589 521.068 348.654 521.945 352.551 522.295C356.442 522.656 360.274 522.721 364.045 522.484C367.829 522.259 370.643 522.046 372.499 521.844C372.834 521.761 373.085 521.738 373.265 521.773C373.6 521.678 374.019 521.59 374.534 521.513C376.941 521.4 380.174 521.092 384.232 520.588C388.285 520.096 392.428 519.391 396.661 518.479C400.887 517.561 404.384 516.322 407.149 514.758C409.927 513.194 411.208 511.28 411.005 509.023C410.795 506.759 408.251 504.016 403.366 500.775C398.205 497.333 392.841 494.086 387.274 491.035C373.462 483.516 359.448 476.388 345.223 469.658C340.099 467.086 334.962 464.527 329.826 461.979C321.265 457.701 312.788 453.246 304.37 448.612C296.582 444.382 289.368 439.363 282.722 433.563C277.951 429.315 274.078 424.403 271.108 418.822C266.403 409.644 265.738 400.17 269.121 390.406C272.779 379.504 279.514 368.922 289.332 358.648C299.138 348.363 311.099 338.616 325.228 329.403C339.368 320.178 354.784 311.646 371.469 303.807C388.148 295.957 405.264 288.965 422.811 282.833C440.352 276.707 457.396 271.635 473.937 267.618C490.472 263.607 505.69 260.828 519.579 259.275C533.468 257.711 545.166 257.587 554.685 258.896C559.666 259.418 564.515 260.692 569.245 262.712Z" fill="white"/>
</g>
<g id="Group_2">
<g id="Group_3">
<path id="Vector_2" d="M436.294 443.351C437.33 443.623 437.737 444.844 437.515 447.024C436.809 448.766 435.995 450.431 435.073 452.025C434.163 453.607 433.091 455.082 431.864 456.457C431.75 456.492 431.708 456.546 431.744 456.623C430.93 457.588 430.032 458.465 429.062 459.253C420.824 464.959 415.634 464.295 413.497 457.262C410.671 461.451 408.719 464.076 407.654 465.131C405.127 467.708 402.086 469.385 398.506 470.155C395.872 470.712 393.896 470.404 392.567 469.231C391.244 468.064 390.795 466.12 391.226 463.401C391.867 459.135 393.322 455.094 395.585 451.266C398.303 446.953 401.595 443.203 405.475 440.009C407.534 438.196 409.893 437.064 412.563 436.62C415.209 436.069 417.173 437.106 418.454 439.725C418.915 440.501 418.915 441.289 418.454 442.095C417.813 443.09 416.885 443.529 415.676 443.398C415.592 443.416 415.472 443.434 415.317 443.446C415.173 443.446 415.053 443.422 414.957 443.374C413.425 442.142 412.132 441.804 411.078 442.355C410.036 442.912 408.995 443.73 407.941 444.82C402.972 449.797 399.895 455.722 398.698 462.595C398.638 462.915 398.626 463.235 398.674 463.567C398.722 463.887 398.883 464.112 399.153 464.254C399.919 464.289 400.679 464.035 401.428 463.496C402.182 462.962 402.888 462.263 403.559 461.41C404.229 460.557 404.786 459.84 405.235 459.253C405.283 459.129 405.307 459.064 405.307 459.064C407.462 456 409.546 452.902 411.557 449.773C412.401 448.197 413.688 447.089 415.412 446.455C417.933 445.78 419.28 446.615 419.459 448.968C419.459 449.868 419.441 450.769 419.412 451.669C419.412 455.526 419.95 457.642 421.04 458.021C422.124 458.4 423.518 458.021 425.231 456.883C426.955 455.746 428.517 454.051 429.924 451.788C431.343 449.513 432.498 447.475 433.396 445.673C434.306 443.86 435.27 443.084 436.294 443.351Z" fill="white"/>
</g>
</g>
<g id="Group_4">
<g id="Group_5">
<path id="Vector_3" d="M464.093 415.592C463.98 416.54 463.77 417.453 463.471 418.318C459.987 429.996 455.479 441.188 449.941 451.9C449.223 453.435 448.366 454.863 447.379 456.19C446.421 457.345 445.319 458.27 444.074 458.963C440.47 460.64 437.866 459.739 436.267 456.261C435.489 454.033 434.866 451.776 434.4 449.483C434.112 448.476 433.843 447.48 433.585 446.497C433.585 446.497 433.633 446.491 433.729 446.473C433.537 445.798 433.358 445.134 433.178 444.482C432.717 442.823 432.256 441.164 431.789 439.505C431.55 438.593 431.334 437.645 431.143 436.661C431.017 434.481 431.777 433.124 433.418 432.585C435.286 432.176 436.662 433.195 437.537 435.642C437.716 436.306 437.824 436.94 437.872 437.538C437.968 438.172 438.081 438.735 438.207 439.221C439.069 442.936 439.979 446.68 440.937 450.455C441.158 451.278 441.655 451.663 442.422 451.616C442.691 451.539 442.913 451.42 443.092 451.26C443.284 451.089 443.427 450.881 443.523 450.644C445.02 447.468 446.469 444.31 447.858 441.164C448.414 439.92 448.971 438.7 449.534 437.515C450.138 436.081 450.755 434.718 451.378 433.438C453.772 427.94 456.197 422.483 458.658 417.062C458.909 416.398 459.256 415.782 459.687 415.213C460.13 414.644 460.777 414.253 461.627 414.028C462.345 413.904 463.004 413.981 463.614 414.265C463.806 414.378 463.932 414.567 463.998 414.834C464.075 415.107 464.105 415.355 464.093 415.592Z" fill="white"/>
</g>
</g>
<g id="Group_6">
<g id="Group_7">
<path id="Vector_4" d="M497.819 434.437C496.202 437.186 494.137 439.722 491.616 442.045C489.108 444.367 486.923 446.038 485.055 447.045C483.199 448.041 481.236 448.864 479.164 449.51C475.824 450.589 472.609 450.968 469.514 450.648C464.377 450.049 461.791 446.951 461.755 441.357C461.851 436.493 463.599 432.245 466.999 428.607C470.388 424.975 474.261 422.599 478.637 421.473C478.637 421.473 478.673 421.468 478.757 421.45C479.859 421.106 480.918 420.899 481.942 420.834C483.822 420.994 485.181 421.687 486.013 422.919C486.839 424.152 486.953 425.757 486.348 427.73C484.911 432.044 482.14 434.976 478.039 436.523C475.339 437.554 472.603 438.146 469.825 438.3C469.334 438.365 468.939 438.62 468.652 439.059C468.352 439.503 468.232 439.977 468.292 440.481C468.436 443.959 470.028 445.766 473.058 445.908C476.805 446.163 480.385 445.197 483.786 443.016C487.695 440.54 491.072 436.949 493.915 432.257C496.771 427.552 498.525 425.236 499.184 425.313C499.836 425.378 500.213 426.036 500.309 427.28C500.273 429.288 499.447 431.676 497.819 434.437ZM470.903 431.878C470.747 432.198 470.663 432.529 470.663 432.873C470.651 433.205 470.855 433.465 471.286 433.655C472.83 434.052 474.357 433.934 475.859 433.3C477.374 432.672 478.542 431.729 479.356 430.479C480.182 429.217 480.326 427.914 479.787 426.569C479.547 426.095 479.194 425.852 478.733 425.834C478.266 425.805 477.847 425.882 477.464 426.071C474.746 427.321 472.561 429.259 470.903 431.878Z" fill="white"/>
</g>
</g>
<g id="Group_8">
<g id="Group_9">
<path id="Vector_5" d="M812.143 462.072C809.318 463.115 806.468 464.152 803.594 465.177C801.008 466.142 798.386 467.108 795.74 468.068C776.786 475.338 758.084 483.165 739.633 491.554C718.398 501.022 697.379 511.148 676.581 521.937C672.941 523.804 669.78 526.298 667.098 529.427C645.528 553.932 622.635 576.921 598.419 598.393C574.197 619.853 548.849 640.045 522.364 658.969C510.852 667.418 498.897 675.144 486.492 682.147C480.793 685.4 474.794 688.096 468.508 690.229C467.694 690.525 466.862 690.786 466.018 691.011C463.192 691.894 460.343 692.184 457.469 691.888C452.931 691.236 450.896 688.653 451.363 684.138C451.841 680.879 452.991 677.798 454.811 674.895C458.307 668.97 462.504 663.555 467.407 658.661C479.392 646.491 492.168 635.169 505.721 624.676C519.066 614.141 532.769 604.069 546.838 594.459C547.233 594.269 547.58 594.032 547.868 593.748C548.311 593.404 548.814 593.054 549.376 592.705C551.448 591.443 552.543 589.541 552.657 586.993C553.04 583.142 553.495 579.303 554.022 575.475C554.07 574.847 554.142 574.16 554.237 573.413C555.255 564.775 556.321 556.053 557.422 547.249C559.482 530.694 561.499 514.093 563.481 497.456C564.948 486.951 565.528 476.381 565.229 465.745C565.133 464.798 565.169 463.814 565.349 462.783C565.81 461.474 566.72 460.828 568.079 460.84C568.522 460.555 569.084 460.407 569.755 460.389C570.246 460.342 570.701 460.449 571.12 460.697C571.551 460.934 571.826 461.308 571.958 461.811C572.497 463.281 572.82 464.75 572.916 466.219C573.503 475.545 573.143 484.842 571.838 494.114C569.713 510.787 567.564 527.483 565.397 544.215C564.582 551.076 563.72 557.937 562.81 564.81C562.631 566.108 562.457 567.411 562.284 568.721C561.805 572.892 561.278 577.098 560.703 581.329C560.667 581.518 560.667 581.655 560.703 581.732C560.541 582.206 560.494 582.644 560.559 583.035C560.619 583.414 560.907 583.717 561.421 583.936C561.517 584.001 561.673 584.048 561.9 584.078C562.026 583.954 562.218 583.817 562.475 583.675C562.553 583.646 562.631 583.622 562.715 583.604C566.319 581.281 569.899 578.977 573.443 576.684C579.681 572.607 585.901 568.555 592.097 564.526C614.302 550.608 636.973 537.573 660.106 525.421C662.866 523.987 665.218 522.115 667.17 519.804C672.804 512.979 678.293 506.076 683.645 499.091C689.009 492.111 694.002 484.907 698.636 477.477C703.773 469.597 708.101 461.243 711.615 452.426C713.752 447.295 714.95 441.927 715.207 436.334C715.333 427.82 711.95 421.255 705.054 416.64C702.527 414.933 699.839 413.618 696.984 412.682C694.14 411.752 691.219 411.058 688.219 410.596C677.97 409.162 667.727 409.234 657.496 410.81C648.569 412.089 639.763 413.902 631.082 416.237C623.18 418.37 615.373 420.823 607.663 423.584C587.835 430.634 568.611 439.083 549.999 448.942C537.271 455.501 525.011 462.7 513.217 470.533C501.417 478.372 490.288 487.229 479.835 497.1C475.938 500.643 472.244 504.352 468.748 508.239C465.252 512.114 462.025 516.196 459.073 520.492C456.852 523.987 454.889 527.566 453.182 531.228C451.871 533.728 451.159 536.418 451.051 539.309C450.824 543.753 452.686 547 456.631 549.05C459.055 550.365 461.648 551.13 464.413 551.349C469.185 551.965 473.926 551.811 478.638 550.875C481.128 550.401 483.649 549.868 486.205 549.263C489.605 548.493 493.012 547.758 496.43 547.059C499.172 546.49 501.896 546.016 504.596 545.637C504.943 545.637 505.278 545.726 505.602 545.898C505.919 546.058 506.206 546.301 506.464 546.633C506.715 547.266 506.661 547.746 506.296 548.078C505.925 548.398 505.518 548.576 505.075 548.623L504.357 548.813C504.117 548.878 503.866 548.949 503.614 549.026C501.124 549.565 498.717 550.152 496.406 550.78C495.622 550.987 494.85 551.195 494.083 551.396C492.916 551.716 491.701 552.048 490.443 552.392L490.324 552.415C486.875 553.351 483.451 554.193 480.051 554.951C476.65 555.698 473.166 556.184 469.61 556.421C465.599 556.61 461.594 556.349 457.589 555.638C455.433 555.247 453.332 554.613 451.291 553.742C445.076 550.946 442.371 546.087 443.173 539.167C443.807 534.605 445.358 530.327 447.818 526.346C450.884 520.788 454.482 515.562 458.618 510.68C469.981 497.456 482.739 485.819 496.885 475.77C508.218 467.493 519.97 459.951 532.135 453.137C544.3 446.33 556.782 440.043 569.587 434.272C589.188 425.142 609.417 417.724 630.268 412.018C630.903 411.846 631.567 411.675 632.256 411.497C640.17 409.364 648.162 407.634 656.226 406.307C664.302 404.979 672.462 404.357 680.7 404.434C687.465 404.482 694.122 405.371 700.671 407.089C704.102 408.037 707.317 409.411 710.322 411.213C720.284 417.09 724.696 425.918 723.564 437.685C723.038 442.899 721.727 447.983 719.637 452.924C715.884 462.202 711.268 471.007 705.796 479.349C699.139 489.623 691.979 499.553 684.316 509.14C684.124 509.442 683.837 509.75 683.454 510.064C683.053 510.526 682.664 511.03 682.28 511.581C681.897 512.12 681.712 512.783 681.73 513.571C682.143 513.749 682.478 513.797 682.735 513.714C683.131 513.524 683.532 513.334 683.933 513.145C684.298 512.849 684.681 512.6 685.082 512.41C708.514 500.72 732.263 489.895 756.324 479.942C767.944 475.202 779.552 470.604 791.142 466.148C795.165 464.62 799.14 463.103 803.068 461.598C804.42 461.017 805.869 460.52 807.402 460.105C808.803 459.667 810.252 459.43 811.736 459.394C811.958 459.412 812.179 459.507 812.407 459.678C812.628 459.838 812.766 459.986 812.814 460.129C813.035 460.62 813.059 461.029 812.886 461.361C812.706 461.681 812.461 461.918 812.143 462.072ZM551.053 630.316C551.053 630.316 551.088 630.31 551.172 630.292C551.699 629.866 552.166 629.368 552.585 628.799C553.016 628.231 553.232 627.567 553.232 626.809C553.04 626.856 552.902 626.897 552.825 626.927C551.16 627.448 550.029 627.52 549.424 627.14C548.814 626.749 548.526 625.789 548.562 624.273C548.562 623.313 548.646 622.317 548.826 621.287C548.855 621.002 548.885 620.765 548.921 620.576C549.113 618.745 549.304 616.95 549.496 615.196C549.987 611.202 550.412 607.185 550.765 603.156C550.813 602.984 550.867 602.747 550.933 602.445C551.059 601.817 551.082 601.213 551.005 600.644C550.939 600.063 550.651 599.53 550.143 599.056C550.059 599.074 549.987 599.092 549.927 599.104C549.508 599.311 549.149 599.554 548.849 599.838C548.658 599.981 548.472 600.117 548.299 600.241C538.702 606.925 529.267 613.809 519.994 620.884C510.732 627.946 501.71 635.34 492.934 643.067C485.732 649.193 478.937 655.722 472.555 662.643C468.82 666.494 465.623 670.736 462.977 675.369C461.444 677.751 460.516 680.37 460.199 683.214C460.103 684.126 460.343 684.92 460.917 685.584C461.492 686.247 462.294 686.567 463.336 686.555C464.485 686.567 465.647 686.419 466.832 686.105C468.089 685.756 469.329 685.305 470.544 684.754C478.267 681.116 485.78 676.933 493.078 672.193C508.894 662.05 524.262 651.207 539.175 639.678C543.162 636.662 547.125 633.539 551.053 630.316ZM650.982 538.124C650.994 537.923 651.09 537.757 651.269 537.627C651.539 537.39 651.724 537.117 651.82 536.797C651.916 536.483 651.778 536.11 651.413 535.683C651.012 535.873 650.563 536.134 650.072 536.465C647.468 537.982 644.858 539.446 642.242 540.85C635.153 544.897 628.113 548.979 621.121 553.103C601.688 564.609 582.614 576.678 563.888 589.316C562.26 590.358 560.978 591.555 560.057 592.894C559.129 594.222 558.65 595.88 558.62 597.871C558.572 598.867 558.458 599.874 558.284 600.881C558.123 601.391 558.021 601.865 557.973 602.303C557.794 603.695 557.434 605.663 556.896 608.204C556.333 610.799 555.8 613.501 555.291 616.31C554.794 619.124 554.573 621.488 554.621 623.396C554.669 625.292 555.135 626.263 556.033 626.311C557.147 625.73 558.117 624.978 558.931 624.059C559.344 623.651 559.793 623.265 560.272 622.898C580.303 606.865 599.557 589.873 618.031 571.92C625.311 564.668 632.495 557.368 639.583 550.022C642.679 546.751 645.786 543.54 648.899 540.376C648.947 540.299 649.006 540.251 649.09 540.234C649.809 539.57 650.437 538.871 650.982 538.124Z" fill="white"/>
</g>
</g>
<g id="Group_10">
<g id="Group_11">
<path id="Vector_6" d="M723.896 537.062C724.931 537.334 725.338 538.555 725.117 540.735C724.41 542.477 723.596 544.142 722.674 545.736C721.764 547.318 720.693 548.793 719.465 550.167C719.352 550.203 719.31 550.256 719.346 550.333C718.531 551.299 717.633 552.176 716.664 552.964C708.426 558.67 703.236 558.006 701.098 550.973C698.273 555.162 696.321 557.787 695.255 558.842C692.729 561.419 689.688 563.096 686.108 563.866C683.474 564.423 681.498 564.115 680.169 562.942C678.846 561.774 678.397 559.831 678.828 557.111C679.468 552.846 680.923 548.805 683.186 544.977C685.904 540.664 689.197 536.913 693.076 533.72C695.136 531.907 697.494 530.775 700.164 530.331C702.81 529.78 704.774 530.817 706.055 533.435C706.516 534.212 706.516 535 706.055 535.805C705.415 536.801 704.487 537.239 703.277 537.109C703.194 537.127 703.074 537.144 702.918 537.156C702.775 537.156 702.655 537.133 702.559 537.085C701.026 535.853 699.733 535.515 698.68 536.066C697.638 536.623 696.596 537.441 695.543 538.531C690.574 543.508 687.497 549.433 686.299 556.306C686.239 556.626 686.227 556.946 686.275 557.277C686.323 557.597 686.485 557.822 686.754 557.965C687.521 558 688.281 557.745 689.029 557.206C689.783 556.673 690.49 555.974 691.16 555.121C691.831 554.267 692.388 553.551 692.837 552.964C692.885 552.84 692.909 552.774 692.909 552.774C695.064 549.711 697.147 546.613 699.159 543.484C700.003 541.908 701.29 540.8 703.014 540.166C705.534 539.491 706.881 540.326 707.061 542.678C707.061 543.579 707.043 544.48 707.013 545.38C707.013 549.237 707.552 551.352 708.641 551.732C709.725 552.111 711.12 551.732 712.832 550.594C714.556 549.456 716.119 547.762 717.526 545.499C718.945 543.223 720.1 541.185 720.998 539.384C721.908 537.571 722.872 536.795 723.896 537.062Z" fill="white"/>
</g>
</g>
<g id="Group_12">
<g id="Group_13">
<path id="Vector_7" d="M756.556 529.874C753.072 537.239 749.277 542.998 745.158 547.152C741.039 551.311 736.04 553.663 730.167 554.214C724.312 554.753 720.983 551.666 720.181 544.947C719.978 541.505 720.05 538.063 720.397 534.614C721.343 526.604 722.336 518.617 723.39 510.654C723.677 507.828 724.013 504.96 724.396 502.051C724.528 501.405 724.611 500.771 724.659 500.155C724.839 499.083 724.995 497.998 725.138 496.908C725.3 495.077 724.39 494.39 722.408 494.846C721.307 495.148 720.223 495.439 719.152 495.723C718.661 495.865 718.11 496.019 717.499 496.173C716.942 496.399 716.362 496.624 715.751 496.861C714.793 497.21 713.829 497.518 712.854 497.785C711.884 498.04 710.902 498.04 709.908 497.785C709.669 497.773 709.453 497.678 709.262 497.501C709.07 497.329 708.938 497.116 708.854 496.861C708.902 496.689 708.986 496.476 709.094 496.221C709.19 495.954 709.375 495.741 709.645 495.581C710.381 495.03 711.195 494.556 712.087 494.159C714.422 493.418 716.733 492.69 719.032 491.979C719.96 491.742 720.756 491.528 721.427 491.339C722.959 490.93 724.085 490.569 724.803 490.249C725.509 489.935 726 489.384 726.288 488.59C726.563 487.784 726.809 486.599 727.03 485.035C727.174 484.152 727.365 483.204 727.605 482.191C728.15 479.205 728.664 476.159 729.161 473.043C729.383 471.638 729.64 470.27 729.928 468.943C730.101 467.615 730.634 466.496 731.532 465.577C732.424 464.819 733.334 464.617 734.262 464.961C734.531 465.044 734.777 465.239 735.004 465.553C735.226 465.856 735.375 466.14 735.459 466.407C735.872 467.894 735.89 469.452 735.507 471.076C735.459 471.443 735.387 471.852 735.292 472.308C735.16 473.795 735.01 475.312 734.837 476.858C734.436 479.738 734.1 482.653 733.831 485.603C733.699 486.172 733.813 486.617 734.166 486.931C734.513 487.233 734.938 487.322 735.435 487.191C738.195 486.528 740.871 485.852 743.457 485.153C744.798 484.792 746.139 484.43 747.48 484.063C751.695 483.02 753.527 483.156 752.988 484.466C752.587 485.272 752.06 485.817 751.408 486.101C750.767 486.374 750.097 486.54 749.396 486.599C748.965 486.729 748.54 486.848 748.127 486.954C743.912 488.364 739.71 489.668 735.531 490.865C733.579 491.404 732.526 492.63 732.37 494.538C732.143 496.375 731.939 498.212 731.748 500.06C731.376 502.513 731.059 504.895 730.79 507.218C730.502 509.398 730.215 511.602 729.928 513.83C729.143 519.506 728.443 525.17 727.82 530.822C727.455 534.472 727.389 538.14 727.629 541.819C727.772 548.585 730.909 550.339 737.04 547.08C743.038 543.857 748.498 537.476 753.419 527.931C755.958 525.182 756.999 525.834 756.556 529.874Z" fill="white"/>
</g>
</g>
<g id="Group_14">
<g id="Group_15">
<path id="Vector_8" d="M787.484 527.592C785.868 530.341 783.802 532.877 781.282 535.199C778.774 537.522 776.588 539.193 774.721 540.2C772.865 541.195 770.901 542.019 768.83 542.665C765.489 543.743 762.274 544.122 759.179 543.802C754.043 543.204 751.456 540.105 751.42 534.512C751.516 529.648 753.264 525.4 756.665 521.762C760.053 518.13 763.927 515.754 768.303 514.628C768.303 514.628 768.339 514.622 768.423 514.604C769.524 514.261 770.584 514.053 771.607 513.988C773.487 514.148 774.846 514.841 775.678 516.074C776.505 517.306 776.618 518.912 776.014 520.885C774.577 525.198 771.805 528.131 767.704 529.677C765.004 530.708 762.268 531.301 759.49 531.455C759 531.52 758.604 531.775 758.317 532.213C758.018 532.658 757.898 533.132 757.958 533.635C758.102 537.113 759.694 538.92 762.723 539.062C766.471 539.317 770.051 538.351 773.451 536.171C777.361 533.694 780.737 530.104 783.581 525.411C786.436 520.707 788.191 518.39 788.849 518.467C789.502 518.533 789.879 519.19 789.975 520.434C789.939 522.443 789.112 524.831 787.484 527.592ZM760.568 525.032C760.412 525.352 760.329 525.684 760.329 526.028C760.317 526.359 760.52 526.62 760.951 526.81C762.496 527.207 764.022 527.088 765.525 526.454C767.04 525.826 768.207 524.884 769.021 523.634C769.847 522.372 769.991 521.068 769.452 519.723C769.213 519.249 768.86 519.007 768.399 518.989C767.932 518.959 767.513 519.036 767.129 519.226C764.411 520.476 762.226 522.413 760.568 525.032Z" fill="white"/>
</g>
</g>
<g id="Group_16">
<g id="Group_17">
<path id="Vector_9" d="M506.449 530.741L506.377 530.788C503.33 531.564 501.151 531.44 499.839 530.409C498.534 529.384 498.103 527.654 498.546 525.219C498.977 523.358 499.69 521.634 500.678 520.052C501.013 519.531 501.39 519.081 501.803 518.701C502.222 518.322 502.737 518.056 503.36 517.896C503.695 517.742 504.108 517.694 504.605 517.753C504.778 517.753 504.94 517.765 505.084 517.777C505.431 517.635 505.754 517.433 506.042 517.161C506.102 517.084 506.197 516.995 506.329 516.9C506.952 516.474 507.652 516.166 508.436 515.976C508.736 515.899 509.047 515.822 509.37 515.739C510.663 515.585 511.729 515.834 512.579 516.497C513.441 517.161 513.944 518.121 514.088 519.365C514.166 520.123 514.118 520.87 513.944 521.593C512.729 526.493 510.292 529.526 506.64 530.693L506.449 530.741ZM508.341 518.346C506.676 518.725 505.347 519.596 504.341 520.953C503.354 522.298 502.725 523.714 502.45 525.195C502.162 526.664 502.276 527.778 502.785 528.537C503.3 529.283 504.234 529.271 505.611 528.513C507.107 527.583 508.299 526.262 509.179 524.555C510.071 522.849 510.484 521.35 510.424 520.052C510.376 518.743 509.682 518.174 508.341 518.346Z" fill="white"/>
</g>
</g>
<g id="Group_18">
<g id="Group_19">
<path id="Vector_10" d="M519.375 529.278C517.382 529.817 516.106 529.065 515.544 527.027C514.861 524.532 515.292 519.68 516.837 512.475C516.903 512.191 517.094 512.001 517.412 511.906C518.741 511.563 519.537 511.9 519.806 512.925C519.92 513.304 519.926 513.796 519.83 514.395C519.782 514.537 519.441 517.547 518.8 523.424C518.705 524.39 518.717 525.077 518.824 525.486C518.956 525.93 519.226 526.096 519.639 525.984C521.171 525.575 524.123 520.758 528.499 511.527C529.056 510.295 529.744 509.572 530.558 509.347C531.738 509.033 532.45 509.311 532.69 510.176C532.785 510.508 532.767 511.859 532.642 514.229C532.45 517.44 532.414 519.271 532.546 519.727C532.719 520.391 533.037 520.663 533.504 520.533C534.653 520.219 537.443 517.304 541.885 511.788C542.107 511.426 542.34 511.219 542.58 511.171C543.106 511.029 543.489 511.397 543.729 512.262C543.789 512.487 543.765 512.688 543.657 512.878C541.418 516.166 539.442 518.732 537.718 520.58C536.168 522.275 534.659 523.318 533.192 523.709L532.761 523.827C530.51 523.957 528.984 522.589 528.188 519.727C526.445 522.352 524.985 524.485 523.805 526.126C522.638 527.755 521.159 528.804 519.375 529.278Z" fill="white"/>
</g>
</g>
<g id="Group_20">
<g id="Group_21">
<path id="Vector_11" d="M555.547 505.006C555.75 506.494 555.331 507.607 554.278 508.348C553.236 509.095 552.703 508.627 552.673 506.95C552.637 505.279 551.811 505.078 550.183 506.357C548.566 507.625 547.333 509 546.471 510.481C545.148 512.839 544.076 515.28 543.262 517.804C543.166 518.012 543.089 518.195 543.023 518.349C542.783 519.078 542.532 519.76 542.256 520.388C542.101 520.814 541.843 521.134 541.49 521.336C541.143 521.525 540.772 521.638 540.389 521.667C540.041 521.715 539.742 521.661 539.503 521.501C539.251 521.33 539.143 521.063 539.191 520.696C539.275 520.079 539.383 519.451 539.527 518.8C540.472 514.854 541.436 510.884 542.424 506.902C542.424 506.843 542.424 506.796 542.424 506.76C542.556 506.144 542.747 505.563 542.999 505.006C543.286 504.438 543.717 504.13 544.292 504.082C544.867 504.023 545.316 504.236 545.633 504.722C546.076 505.403 546.387 505.765 546.567 505.812C546.758 505.848 547.118 505.67 547.644 505.291C548.758 504.503 549.883 503.857 551.021 503.347C552.17 502.844 553.158 502.625 553.99 502.684C554.816 502.749 555.337 503.525 555.547 505.006Z" fill="white"/>
</g>
</g>
</g>
</g>
<defs>
<linearGradient id="paint0_linear_650_138" x1="540" y1="695" x2="540" y2="1073" gradientUnits="userSpaceOnUse">
<stop offset="0.389436" stop-color="#C4BEBE"/>
<stop offset="0.918312" stop-color="white"/>
</linearGradient>
</defs>
</svg>
